<?xml version="1.0" encoding="UTF-8" standalone="no"?>
<!DOCTYPE svg PUBLIC "-//W3C//DTD SVG 1.1//EN"
 "http://www.w3.org/Graphics/SVG/1.1/DTD/svg11.dtd">
<!-- Generated by graphviz version 2.36.0 (20140111.2315)
 -->
<!-- Title: G Pages: 1 -->
<svg width="369pt" height="65pt"
 viewBox="0.00 0.00 369.20 65.20" xmlns="http://www.w3.org/2000/svg" xmlns:xlink="http://www.w3.org/1999/xlink">
<g id="graph0" class="graph" transform="scale(1 1) rotate(0) translate(21.6 43.6)">
<title>G</title>
<polygon fill="#111111" stroke="none" points="-21.6,21.6 -21.6,-43.6 347.6,-43.6 347.6,21.6 -21.6,21.6"/>
<!-- collectData.ts -->
<g id="node1" class="node"><title>collectData.ts</title>
<path fill="none" stroke="#cfffac" d="M317.833,-22.5C317.833,-22.5 232.167,-22.5 232.167,-22.5 228.333,-22.5 224.5,-18.6667 224.5,-14.8333 224.5,-14.8333 224.5,-7.16667 224.5,-7.16667 224.5,-3.33333 228.333,0.5 232.167,0.5 232.167,0.5 317.833,0.5 317.833,0.5 321.667,0.5 325.5,-3.33333 325.5,-7.16667 325.5,-7.16667 325.5,-14.8333 325.5,-14.8333 325.5,-18.6667 321.667,-22.5 317.833,-22.5"/>
<text text-anchor="middle" x="275" y="-7.3" font-family="Arial" font-size="14.00" fill="#cfffac">collectData.ts</text>
</g>
<!-- index.ts -->
<g id="node2" class="node"><title>index.ts</title>
<path fill="none" stroke="#c6c5fe" d="M57.8333,-22.5C57.8333,-22.5 8.16667,-22.5 8.16667,-22.5 4.33333,-22.5 0.5,-18.6667 0.5,-14.8333 0.5,-14.8333 0.5,-7.16667 0.5,-7.16667 0.5,-3.33333 4.33333,0.5 8.16667,0.5 8.16667,0.5 57.8333,0.5 57.8333,0.5 61.6667,0.5 65.5,-3.33333 65.5,-7.16667 65.5,-7.16667 65.5,-14.8333 65.5,-14.8333 65.5,-18.6667 61.6667,-22.5 57.8333,-22.5"/>
<text text-anchor="middle" x="33" y="-7.3" font-family="Arial" font-size="14.00" fill="#c6c5fe">index.ts</text>
</g>
<!-- observer.ts -->
<g id="node3" class="node"><title>observer.ts</title>
<path fill="none" stroke="#c6c5fe" d="M180.333,-22.5C180.333,-22.5 109.667,-22.5 109.667,-22.5 105.833,-22.5 102,-18.6667 102,-14.8333 102,-14.8333 102,-7.16667 102,-7.16667 102,-3.33333 105.833,0.5 109.667,0.5 109.667,0.5 180.333,0.5 180.333,0.5 184.167,0.5 188,-3.33333 188,-7.16667 188,-7.16667 188,-14.8333 188,-14.8333 188,-18.6667 184.167,-22.5 180.333,-22.5"/>
<text text-anchor="middle" x="145" y="-7.3" font-family="Arial" font-size="14.00" fill="#c6c5fe">observer.ts</text>
</g>
<!-- index.ts&#45;&gt;observer.ts -->
<g id="edge1" class="edge"><title>index.ts&#45;&gt;observer.ts</title>
<path fill="none" stroke="#757575" d="M65.5216,-11C73.7321,-11 82.802,-11 91.7732,-11"/>
<polygon fill="#757575" stroke="#757575" points="91.8091,-14.5001 101.809,-11 91.809,-7.5001 91.8091,-14.5001"/>
</g>
<!-- observer.ts&#45;&gt;collectData.ts -->
<g id="edge2" class="edge"><title>observer.ts&#45;&gt;collectData.ts</title>
<path fill="none" stroke="#757575" d="M188.267,-11C196.536,-11 205.355,-11 214.073,-11"/>
<polygon fill="#757575" stroke="#757575" points="214.221,-14.5001 224.221,-11 214.221,-7.5001 214.221,-14.5001"/>
</g>
</g>
</svg>
